<?xml version="1.0" encoding="utf-8"?>
<!-- Generator: Adobe Illustrator 24.1.2, SVG Export Plug-In . SVG Version: 6.00 Build 0)  -->
<svg version="1.1" id="Camada_1" xmlns="http://www.w3.org/2000/svg" xmlns:xlink="http://www.w3.org/1999/xlink" x="0px" y="0px"
	 viewBox="0 0 250 250" style="enable-background:new 0 0 250 250;" xml:space="preserve">
<g>
	<path d="M94.68,90.22c-6.98-8.55-11.6-18.3-14.58-28.87c-0.81-2.87-1.47-5.78-1.93-8.72c-0.16-1.03-0.76-1.57-1.69-1.57
		c-0.85,0-1.35,0.46-1.3,1.32c0.05,0.81,0.19,1.62,0.33,2.42c0.93,5.48,2.57,10.76,4.57,15.93C83.67,80,88.66,88.4,95.5,95.66
		c0.32,0.34,0.62,0.69,0.97,0.99c0.62,0.53,1.44,0.47,2.01-0.12c0.5-0.51,0.63-1.47-0.1-2.19C97.07,93.04,95.85,91.65,94.68,90.22z"
		/>
	<path d="M76.64,204.83c0.81-0.11,1.3-0.64,1.45-1.59c0.73-4.6,1.93-9.09,3.43-13.5c3.58-10.52,8.92-20.01,16.69-28.04
		c0.15-0.15,0.3-0.31,0.42-0.48c0.42-0.62,0.29-1.41-0.28-1.92c-0.55-0.49-1.27-0.53-1.85-0.08c-0.22,0.17-0.41,0.39-0.61,0.59
		c-1.78,1.84-3.45,3.77-5,5.82c-7.43,9.81-12.17,20.84-14.94,32.78c-0.39,1.66-0.65,3.34-0.86,4.92
		C75.07,204.42,75.67,204.96,76.64,204.83z"/>
	<path d="M102.21,157.32c1.84-1.87,3.66-3.76,5.48-5.64c0.28-0.29,0.47-0.62,0.48-1.11c-0.03-0.58-0.35-1.07-0.93-1.36
		c-0.62-0.31-1.17-0.13-1.64,0.35c-1.85,1.91-3.71,3.81-5.54,5.73c-0.63,0.66-0.59,1.48,0,2.08
		C100.72,158.04,101.5,158.05,102.21,157.32z"/>
	<path d="M190.8,212.99c-0.82-0.85-1.77-1.54-2.81-2.09c-0.46-0.24-0.67-0.53-0.71-1.06c-0.28-3.51-0.81-6.98-1.47-10.43
		c-2.11-10.92-5.81-21.27-11.31-30.95c-6.47-11.39-14.94-20.97-25.82-28.35c-1.15-0.78-2.33-1.5-3.47-2.28
		c-1.38-0.95-2.66-2.02-3.68-3.37c-1.88-2.49-2.32-5.2-1.23-8.14c0.49-1.31,1.16-2.51,1.96-3.65c1.79-2.52,3.97-4.65,6.51-6.4
		c4.53-3.12,8.65-6.69,12.43-10.67c8.79-9.25,15.17-19.98,19.51-31.95c2.96-8.15,4.81-16.54,5.62-25.18
		c0.27-2.83,0.43-5.67,0.44-8.51c0-0.58,0.17-0.91,0.72-1.12c0.93-0.37,1.78-0.89,2.54-1.54c1.2-1.03,1.82-2.31,1.81-3.92
		c-0.02-4.12,0-8.24,0-12.37c0-0.78,0.06-1.58-0.07-2.34c-0.25-1.49-1.19-2.55-2.4-3.38c-1.48-1.02-3.14-1.63-4.85-2.14
		c-6.11-1.81-12.37-2.88-18.69-3.58c-6.99-0.78-14.01-1.32-21.03-1.7c-6.32-0.34-12.64-0.52-18.97-0.54
		c-7.14-0.02-14.29,0.12-21.42,0.51c-5.71,0.32-11.41,0.78-17.1,1.39c-5.37,0.57-10.72,1.21-16,2.39c-2.98,0.66-5.93,1.44-8.71,2.73
		c-1.13,0.53-2.21,1.13-3.14,1.99c-1.03,0.94-1.63,2.05-1.34,3.5c0.03,0.17,0.02,0.35,0.02,0.53c-0.01,4.41,0,8.81-0.04,13.22
		c-0.01,1.42,0.53,2.55,1.53,3.49c0.79,0.74,1.7,1.3,2.68,1.71c0.53,0.22,0.73,0.49,0.74,1.1c0.19,8.38,1.39,16.62,3.6,24.71
		c3.83,14,10.21,26.68,19.67,37.74c4.29,5.02,9.09,9.5,14.48,13.31c2.37,1.67,4.54,3.53,6.38,5.77c1.13,1.38,2.15,2.83,2.79,4.51
		c1.32,3.44,0.78,6.55-1.71,9.29c-0.86,0.95-1.86,1.76-2.92,2.48c-1.18,0.79-2.38,1.54-3.56,2.34c-12.05,8.12-21.21,18.8-27.9,31.63
		c-6.27,12.02-9.8,24.84-10.94,38.33c-0.04,0.51-0.18,0.83-0.67,1.06c-0.8,0.38-1.53,0.9-2.2,1.49c-1.27,1.11-1.96,2.44-1.94,4.19
		c0.05,4.48,0.03,8.96,0,13.43c-0.01,1.66,0.66,2.94,1.91,3.97c0.97,0.8,2.08,1.36,3.24,1.81c2.09,0.81,4.24,1.4,6.41,1.93
		c5.39,1.33,10.88,2.05,16.39,2.62c5.8,0.61,11.6,1.09,17.42,1.4c7.17,0.38,14.35,0.57,21.44,0.51c8.58,0.09,17.07-0.16,25.55-0.69
		c7.23-0.45,14.45-1.09,21.63-2.11c4.47-0.64,8.88-1.55,13.18-2.94c1.52-0.49,3.02-1.06,4.36-1.95c1.79-1.19,2.7-2.81,2.68-5.01
		c-0.05-4.3-0.04-8.6,0.01-12.9C192.38,215.28,191.83,214.06,190.8,212.99z M66.17,17.57c3.9-1.23,7.88-2.1,11.92-2.74
		c6.22-0.99,12.48-1.49,18.75-1.96c14.16-1.05,28.33-1.14,42.51-0.73c6.11,0.17,12.21,0.5,18.3,1.07c6.61,0.62,13.21,1.4,19.72,2.74
		c2.33,0.48,4.63,1.08,6.87,1.88c0.97,0.35,1.9,0.77,2.85,1.42c-0.83,0.7-1.71,1.06-2.61,1.4c-2.9,1.11-5.92,1.73-8.95,2.32
		c-6.14,1.19-12.35,1.89-18.59,2.39c-13.05,1.04-26.12,1.39-39.2,1.16c-6.93-0.12-13.86-0.38-20.77-0.87
		c-6.8-0.48-13.59-1.19-20.32-2.33c-3.81-0.65-7.61-1.42-11.25-2.77c-0.89-0.33-1.76-0.71-2.55-1.36
		C63.91,18.39,65.02,17.94,66.17,17.57z M65.71,35.29c-0.84-0.3-1.64-0.67-2.41-1.12c-0.47-0.27-0.72-0.6-0.71-1.18
		c0.03-2.84,0.01-5.68,0.02-8.49c0.18-0.2,0.35-0.11,0.51-0.05c3.97,1.62,8.14,2.44,12.34,3.17c7.92,1.39,15.9,2.11,23.92,2.62
		c11.92,0.77,23.85,1.02,35.79,0.77c7.14-0.14,14.27-0.54,21.38-1.16c4.81-0.42,9.62-0.91,14.4-1.58
		c5.45-0.77,10.85-1.78,16.02-3.77c0.09-0.04,0.2-0.02,0.41-0.03c0,2.97-0.02,5.84,0.01,8.72c0.01,0.53-0.28,0.76-0.65,0.99
		c-1.53,0.94-3.2,1.53-4.91,1.99c-3.88,1.04-7.82,1.77-11.79,2.36c-8.19,1.22-16.45,1.75-24.72,2.18
		c-10.94,0.57-21.87,0.59-32.82,0.3c-6.43-0.17-12.85-0.5-19.26-1.07c-6.19-0.54-12.37-1.17-18.48-2.32
		C71.69,37.06,68.66,36.33,65.71,35.29z M67.07,217.1c0.38-17.58,4.76-34.02,14-49.06c6.27-10.21,14.37-18.65,24.48-25.13
		c1.74-1.11,3.41-2.31,4.92-3.73c1.94-1.84,3.47-3.96,4.27-6.52c0.84-2.69,0.45-5.34-0.47-7.94c-1.09-3.07-2.94-5.66-5.18-7.98
		c-1.53-1.59-3.22-3.01-5.04-4.26c-6.63-4.54-12.29-10.09-17.18-16.44C78.79,85.52,73.44,73.7,70.3,60.85
		c-1.52-6.23-2.39-12.55-2.72-18.95c-0.02-0.42-0.1-0.84,0.05-1.3c1.57,0.36,3.12,0.75,4.67,1.07c4.31,0.91,8.67,1.52,13.05,1.99
		c5.72,0.61,11.46,1.08,17.2,1.41c6.28,0.36,12.57,0.53,18.86,0.56c7.18,0.04,14.36-0.01,21.53-0.32
		c6.42-0.28,12.84-0.71,19.24-1.38c4.84-0.51,9.67-1.03,14.45-1.98c1.7-0.34,3.39-0.77,5.08-1.16c0.17-0.04,0.33-0.13,0.49-0.05
		c0,1.27,0.07,2.55-0.01,3.82c-0.43,6.93-1.52,13.76-3.38,20.45c-3.77,13.55-10.05,25.75-19.54,36.21
		c-3.86,4.25-8.13,8.03-12.88,11.28c-3.5,2.39-6.46,5.34-8.68,8.98c-1.45,2.37-2.38,4.91-2.43,7.73c-0.06,2.93,0.9,5.5,2.64,7.82
		c1.29,1.73,2.9,3.12,4.66,4.35c1.6,1.12,3.26,2.16,4.86,3.28c9.86,6.92,17.52,15.82,23.4,26.28c5.07,9.01,8.5,18.64,10.5,28.77
		c1.13,5.73,1.81,11.5,1.92,17.34c0.02,1.06,0.24,0.93-0.96,1.25c-4.91,1.31-9.9,2.21-14.95,2.82c-6.77,0.82-13.58,1.29-20.39,1.7
		c-11.18,0.68-22.37,0.82-33.57,0.53c-6.71-0.17-13.42-0.57-20.11-1.18c-4.63-0.42-9.26-0.91-13.87-1.56
		c-3.87-0.55-7.7-1.3-11.45-2.38C67.06,217.97,67.05,217.96,67.07,217.1z M187.33,230.9c-1.02,0.66-2.12,1.15-3.27,1.52
		c-3.22,1.03-6.52,1.72-9.84,2.32c-6.26,1.13-12.59,1.69-18.93,2.19c-13.59,1.07-27.19,1.22-40.8,0.94
		c-6.93-0.14-13.85-0.49-20.76-1.08c-5.45-0.46-10.89-1.01-16.29-1.89c-3.89-0.63-7.74-1.45-11.48-2.74
		c-0.98-0.34-1.91-0.75-2.79-1.31c-0.39-0.25-0.6-0.54-0.59-1.04c0.03-2.67,0.03-5.33,0.04-8c0-0.21-0.05-0.43,0.11-0.6
		c0.23-0.07,0.42,0.04,0.61,0.12c4.12,1.72,8.45,2.66,12.85,3.32c5.16,0.78,10.35,1.39,15.55,1.88c3.85,0.36,7.72,0.65,11.58,0.89
		c10.01,0.6,20.03,0.66,30.05,0.44c6.5-0.15,13-0.47,19.48-0.94c3.86-0.28,7.73-0.54,11.58-0.93c7.18-0.73,14.29-1.82,21.19-4.03
		c0.7-0.23,1.39-0.48,2.25-0.78c0,3.03-0.01,5.91,0.01,8.78C187.88,230.42,187.68,230.67,187.33,230.9z"/>
</g>
</svg>
