<?xml version="1.0" standalone="no"?>
<!DOCTYPE svg PUBLIC "-//W3C//DTD SVG 20010904//EN"
 "http://www.w3.org/TR/2001/REC-SVG-20010904/DTD/svg10.dtd">
<svg version="1.0" xmlns="http://www.w3.org/2000/svg"
 width="1217.000000pt" height="1217.000000pt" viewBox="0 0 1217.000000 1217.000000"
 preserveAspectRatio="xMidYMid meet">
<metadata>
Created by potrace 1.14, written by Peter Selinger 2001-2017
</metadata>
<g transform="translate(0.000000,1217.000000) scale(0.100000,-0.100000)"
fill="#000000" stroke="none">
<path d="M4949 11695 c-78 -16 -145 -47 -176 -83 -13 -14 -23 -26 -23 -27 0
-9 -65 -208 -135 -414 -50 -147 -86 -271 -87 -296 -1 -56 29 -119 87 -183 55
-61 55 -46 1 -239 -20 -72 -39 -140 -41 -150 -2 -10 -11 -52 -20 -93 -23 -106
-23 -104 -29 -146 -4 -22 -11 -64 -16 -94 -5 -30 -11 -73 -14 -95 -3 -22 -8
-60 -11 -85 -12 -93 -14 -117 -22 -210 -14 -186 -6 -811 12 -840 2 -3 6 -34
10 -70 15 -148 58 -382 95 -520 71 -261 141 -465 227 -660 99 -222 191 -385
358 -631 182 -266 254 -432 259 -598 5 -131 -30 -222 -117 -304 -63 -60 -162
-104 -345 -152 -289 -76 -552 -175 -792 -298 -816 -418 -1513 -1170 -1916
-2070 -27 -59 -55 -109 -64 -112 -8 -2 -26 -6 -40 -9 -92 -16 -182 -73 -215
-136 -31 -60 -225 -660 -225 -696 1 -81 62 -173 175 -263 214 -170 558 -360
1015 -561 91 -40 183 -81 205 -90 103 -47 368 -154 540 -219 105 -40 199 -76
210 -81 30 -14 327 -118 445 -156 58 -19 111 -36 118 -39 7 -2 16 -5 20 -6 4
0 14 -5 22 -9 23 -12 463 -152 645 -205 364 -106 822 -225 1037 -269 203 -42
371 -73 433 -82 22 -3 51 -7 65 -9 14 -3 48 -7 75 -11 28 -3 64 -8 80 -10 17
-3 107 -7 200 -9 230 -6 322 14 394 84 42 41 48 55 160 388 97 288 113 353 98
409 -9 36 -54 117 -82 149 -28 31 -48 72 -41 83 5 9 54 244 61 297 3 22 7 49
10 60 2 11 7 43 10 70 4 28 8 61 11 75 6 38 24 219 29 305 5 68 5 541 1 585
-2 19 -7 69 -10 110 -4 41 -8 86 -10 100 -2 14 -6 50 -10 80 -90 708 -355
1356 -776 1894 -51 65 -110 146 -130 180 -145 240 -88 444 176 626 100 69 215
121 389 175 483 150 917 390 1325 729 121 101 248 223 420 405 32 34 208 248
251 306 253 337 464 721 625 1139 29 76 55 141 57 143 5 4 20 7 89 17 59 9
125 45 161 86 26 31 54 103 146 378 101 303 112 344 106 383 -23 136 -139 243
-505 462 -292 175 -964 477 -1570 707 -596 226 -1232 428 -1790 570 -187 47
-637 150 -730 166 -25 4 -47 8 -50 9 -3 1 -25 5 -50 9 -25 5 -54 10 -65 12
-44 9 -143 23 -200 30 -33 3 -69 8 -80 11 -53 12 -403 11 -466 -2z m313 -190
c64 -3 127 -8 140 -10 12 -2 44 -6 70 -9 43 -5 133 -18 213 -32 17 -3 62 -11
100 -19 39 -7 88 -17 110 -21 22 -4 45 -8 50 -10 6 -1 53 -12 105 -23 300 -68
818 -208 1205 -326 398 -121 1284 -436 1518 -538 17 -8 73 -32 122 -52 130
-54 211 -90 407 -181 287 -133 542 -270 713 -383 108 -72 231 -179 218 -192
-4 -4 -21 -10 -38 -14 -37 -7 -264 -8 -308 -1 -18 3 -52 8 -77 11 -110 12
-297 39 -350 50 -14 2 -36 7 -50 10 -14 2 -38 7 -55 10 -183 31 -715 164
-1075 268 -140 41 -295 86 -345 101 -119 36 -663 217 -784 262 -53 20 -157 58
-231 85 -724 267 -1391 576 -1736 805 -119 78 -224 167 -224 189 0 14 99 32
155 28 17 -1 82 -4 147 -8z m-301 -304 c170 -128 505 -315 829 -464 30 -13 95
-43 143 -66 49 -22 92 -41 96 -41 4 0 31 -11 59 -25 29 -14 54 -25 57 -25 2 0
30 -12 62 -26 32 -14 67 -29 78 -34 345 -151 1236 -469 1745 -621 386 -116
951 -258 1290 -324 343 -67 512 -87 730 -89 119 -1 125 -3 122 -21 -5 -26
-112 -346 -122 -365 -14 -25 -115 -39 -248 -35 -67 3 -135 7 -150 9 -15 3 -54
7 -86 11 -202 20 -598 97 -911 177 -66 16 -124 31 -130 32 -61 15 -362 98
-455 125 -36 11 -141 42 -235 70 -260 77 -934 302 -1020 341 -11 5 -31 12 -45
15 -14 4 -38 13 -55 20 -16 7 -75 30 -130 50 -610 228 -1294 547 -1583 738
-149 98 -262 195 -263 226 0 15 123 391 128 391 2 0 44 -31 94 -69z m-21 -751
c149 -93 444 -249 620 -328 231 -103 345 -153 530 -230 118 -49 253 -103 300
-121 47 -18 94 -37 105 -41 72 -31 431 -159 705 -251 213 -72 622 -204 667
-214 10 -3 88 -25 173 -50 361 -105 956 -248 1205 -289 170 -29 293 -46 355
-51 41 -3 87 -8 102 -11 l26 -5 -22 -67 c-59 -172 -203 -476 -320 -674 -373
-633 -872 -1140 -1452 -1476 -75 -44 -348 -182 -359 -182 -3 0 -25 -8 -48 -19
-69 -30 -176 -69 -282 -101 -210 -64 -331 -115 -438 -184 -254 -165 -377 -352
-378 -577 -1 -157 61 -301 214 -501 197 -259 283 -391 392 -603 93 -181 220
-491 240 -586 2 -9 12 -47 24 -85 35 -121 80 -327 97 -444 2 -19 6 -42 9 -50
2 -8 7 -44 10 -80 4 -36 9 -74 11 -85 25 -131 25 -794 0 -930 -2 -11 -7 -51
-11 -90 -4 -38 -8 -77 -10 -85 -1 -8 -6 -40 -11 -70 -4 -30 -8 -57 -9 -60 -1
-3 -5 -25 -9 -50 -14 -75 -15 -84 -21 -110 -3 -14 -7 -34 -9 -45 -8 -43 -67
-264 -89 -335 l-23 -75 -65 1 c-66 0 -208 12 -244 19 -11 2 -39 7 -63 9 -414
50 -1352 291 -2132 548 -861 283 -1787 676 -2245 951 -11 7 -34 22 -52 34 -17
13 -35 23 -40 24 -4 0 -28 15 -53 33 -37 28 -45 39 -44 63 3 49 121 333 229
548 170 339 377 647 613 914 346 391 741 697 1177 911 218 107 398 175 633
239 216 59 319 98 405 154 127 83 206 175 248 292 31 86 36 268 9 387 -38 173
-113 327 -261 533 -215 300 -355 571 -479 932 -69 200 -149 522 -166 673 -3
30 -8 58 -10 61 -2 4 -6 37 -10 74 -3 37 -7 76 -9 87 -10 48 -20 278 -19 443
0 199 9 353 29 520 2 22 7 63 11 90 3 28 17 109 30 180 14 72 27 144 30 160 5
26 38 159 75 298 7 25 14 35 22 30 7 -3 46 -28 87 -53z m-2640 -7756 c235
-151 740 -396 1245 -603 83 -34 170 -70 195 -81 60 -26 529 -201 550 -206 3 0
12 -4 20 -7 39 -17 579 -193 775 -252 323 -98 1086 -302 1225 -329 14 -2 46
-9 73 -15 26 -6 64 -14 85 -17 20 -3 39 -7 42 -9 6 -4 152 -30 225 -40 22 -4
47 -8 55 -10 8 -2 47 -7 85 -11 39 -3 72 -8 75 -9 10 -6 225 -18 327 -19 57
-1 103 -3 103 -4 0 -10 -123 -370 -129 -381 -13 -21 -110 -38 -206 -36 -94 2
-276 15 -285 20 -3 1 -30 6 -61 9 -31 4 -65 8 -75 10 -11 2 -44 7 -74 12 -30
4 -57 8 -60 9 -3 1 -25 5 -50 9 -68 13 -82 15 -115 22 -215 42 -850 201 -1085
272 -36 11 -105 32 -155 47 -568 166 -1442 480 -1920 690 -16 7 -84 37 -150
65 -204 88 -593 284 -730 367 -250 151 -374 257 -367 313 2 11 122 352 127
361 4 5 41 -19 83 -54 42 -34 120 -90 172 -123z"/>
<path d="M5021 9933 c-22 -15 -41 -92 -57 -228 -3 -27 -9 -79 -14 -115 -8 -68
-6 -676 3 -720 3 -14 8 -50 12 -80 3 -30 8 -73 11 -95 7 -63 34 -217 44 -255
5 -19 12 -51 15 -70 19 -112 129 -434 200 -587 40 -85 63 -112 93 -107 6 1 19
2 27 3 9 0 23 16 31 35 16 33 16 35 -24 122 -84 186 -165 426 -198 589 -27
133 -51 269 -59 341 -4 33 -8 70 -10 82 -21 132 -21 666 -1 778 2 10 7 46 10
79 4 33 10 74 12 90 3 17 7 45 9 63 6 60 -59 107 -104 75z"/>
<path d="M4738 5238 c-109 -57 -180 -100 -186 -113 -10 -23 1 -75 20 -86 7 -5
25 -9 40 -9 30 0 355 163 376 188 31 39 -2 112 -50 112 -13 0 -103 -42 -200
-92z"/>
<path d="M4320 5014 c-463 -261 -823 -576 -1142 -999 -170 -225 -339 -500
-352 -570 -9 -51 66 -90 108 -56 8 7 40 58 72 114 335 593 825 1090 1361 1378
85 45 106 70 96 110 -14 54 -72 63 -143 23z"/>
</g>
</svg>
